# xmcd
#
# Track frame offsets: 
#        150
#        14367
#        26813
#        43788
#        59860
#        74383
#        92637
#        106979
#        120204
#        135275
#        147322
#        164737
#        177691
#        191337
#        214788
#
# Disc length: 3118 seconds
#
# Revision: 0
# Processed by: cddbd v1.5.2PL0 Copyright (c) Steve Scherf et al.
# Submitted via: ExactAudioCopy v1.1
#
DISCID=de0c2c0f
DTITLE=Handl - Zakletí ve strunách
DYEAR=2016
DGENRE=Bluegrass
TTITLE0=Třetí planeta
TTITLE1=Kdo ví co zítřek nám dá
TTITLE2=Stop 
TTITLE3=Plout s ní dál
TTITLE4=Teď chci znát
TTITLE5=Eager and Anxious
TTITLE6=Blázen chce v trápení žít
TTITLE7=Oáza usmíření
TTITLE8=Snílek
TTITLE9=Až zazní hlas
TTITLE10=Alabama Jubilee
TTITLE11=Kapek
TTITLE12=Zakletí ve strunách
TTITLE13=I Can't Believe
TTITLE14=Dům u vycházejícího slunce
EXTD=
EXTT0=
EXTT1=
EXTT2=
EXTT3=
EXTT4=
EXTT5=
EXTT6=
EXTT7=
EXTT8=
EXTT9=
EXTT10=
EXTT11=
EXTT12=
EXTT13=
EXTT14=
PLAYORDER=
